<svg id="Layer_1" data-name="Layer 1" xmlns="http://www.w3.org/2000/svg" viewBox="0 0 500 500"><defs><style>.cls-1{fill:#010101;}</style></defs><path class="cls-1" d="M363.64,0a45.51,45.51,0,0,0-45.46,45.45V159.09H204.55a45.64,45.64,0,0,0-45.46,45.46V318.18H45.45A45.63,45.63,0,0,0,0,363.64v90.91A45.63,45.63,0,0,0,45.45,500h409.1A45.5,45.5,0,0,0,500,454.55V45.45A45.5,45.5,0,0,0,454.55,0ZM204.55,181.82H318.18V477.27H45.45a22.54,22.54,0,0,1-22.72-22.72V363.64a22.54,22.54,0,0,1,22.72-22.73h125a11.37,11.37,0,0,0,11.37-11.36v-125A22.54,22.54,0,0,1,204.55,181.82Z"/></svg>